<svg width="64" height="34" viewBox="0 0 64 34" fill="none" xmlns="http://www.w3.org/2000/svg">
<path d="M45.0895 0L40.3658 27.4595H39.5338L32.5557 0H22.33L15.2445 27.5389H14.3857L8.91054 0H0L7.40756 33.7882C7.43439 33.9206 7.54175 34 7.67594 34H20.5318C20.8002 34 21.0149 33.8146 21.0686 33.5763L26.6511 10.3271H27.4026L32.7972 33.5498C32.8509 33.8146 33.0924 34 33.3877 34H46.163C46.3509 34 46.4851 33.8676 46.5388 33.7087L54 0H45.0895Z" fill="black"/>
<path d="M60 0C57.7925 0 56 1.79245 56 4C56 6.20755 57.7925 8 60 8C62.2075 8 64 6.20755 64 4C64 1.79245 62.2075 0 60 0ZM56.6038 4C56.6038 2.13207 58.1321 0.603773 60 0.603773C60.6981 0.603773 61.3208 0.867924 61.8491 1.22642L61.2453 1.96226C61 1.83019 60.7359 1.69811 60.3962 1.69811H58.5472V5.30189L57.6415 6.41509C57.0189 5.81132 56.6038 4.96226 56.6038 4ZM61.3774 3C61.3774 3.24528 61.283 3.43396 61.1132 3.58491C60.9434 3.73585 60.6981 3.81132 60.3962 3.81132H60.2642L61.2076 2.64151C61.283 2.73585 61.3774 2.84906 61.3774 3ZM59.1132 3.81132V2.18868H60.4151C60.6415 2.18868 60.8113 2.26415 60.9623 2.35849L59.7925 3.81132H59.1132ZM59.3962 4.28302L59.1132 4.64151V4.28302H59.3962ZM60 7.39623C59.2264 7.39623 58.5472 7.09434 57.9623 6.64151L58.5472 5.90566V5.92453H59.0943V5.22641L59.8679 4.26415H59.8868L61.3585 5.92453H62.0377L60.5094 4.24528H60.5849C60.9811 4.22641 61.3019 4.09434 61.566 3.86792C61.8113 3.64151 61.9434 3.33962 61.9434 2.98113C61.9434 2.64151 61.7925 2.39623 61.5849 2.18868L62.1887 1.43396C62.9245 2.0566 63.3962 2.9434 63.3962 3.98113C63.3962 5.86792 61.8679 7.39623 60 7.39623Z" fill="black"/>
</svg>
