<svg width="122" height="126" viewBox="0 0 122 126" fill="none" xmlns="http://www.w3.org/2000/svg">
<path d="M106.174 12.3013C95.5942 4.46404 81.0953 0.414795 63.3309 0.414795C45.4359 0.414795 31.0676 4.33342 20.618 12.3013C11.4745 19.2242 9.38458 33.8537 9.38458 42.2134L44.7828 41.9521C44.7828 38.1642 44.2603 31.6331 47.6564 27.3226C50.9219 23.1428 56.7999 21.4447 62.939 21.4447C69.2088 21.4447 74.303 23.2734 78.091 26.9308C81.879 30.5882 83.7077 35.4211 83.7077 41.299C83.7077 41.299 83.7077 42.2134 83.7077 45.8708C83.7077 49.5281 80.9647 50.8344 77.4379 51.3568C74.0418 51.8793 57.9755 53.708 57.9755 53.708C37.7293 56.451 22.7079 61.0228 13.3032 67.6844C4.42099 73.8236 0.110504 82.1833 0.110504 92.8942C0.110504 102.952 3.37604 110.659 10.1683 116.406C17.0912 122.153 26.4959 125.157 38.2517 125.157C62.5472 125.157 74.4336 119.018 80.9647 109.222L82.1403 107.262H83.5771V122.284H121.588V42.9971C121.588 30.0657 116.624 20.0079 106.174 12.3013ZM83.5771 78.9178C83.5771 86.6244 80.9647 93.0248 75.8705 98.119C70.7763 103.083 64.1146 105.695 56.1468 105.695C50.2688 105.695 45.4359 104.128 41.9091 101.123C38.1211 97.9884 36.1618 93.6779 36.1618 88.4531C36.1618 81.3996 40.0804 72.5174 58.6286 70.1662L83.7077 66.5088V78.9178H83.5771Z" fill="black"/>
</svg>
