<svg width="132" height="179" viewBox="0 0 132 179" fill="none" xmlns="http://www.w3.org/2000/svg">
<path d="M93.7305 71.4402H91.7712L90.5956 69.7421C82.6278 58.77 64.3409 54.4595 50.3645 54.982C34.8206 55.6351 23.5873 61.1212 14.052 72.4852C4.38603 83.8491 0.728638 97.3031 0.728638 116.112C0.728638 135.314 4.77788 149.421 14.4438 160.654C23.9791 171.887 39.0005 178.418 54.8056 178.418C69.3045 178.418 82.2359 173.063 90.2038 162.221L91.3793 160.523H93.9918V175.284H131.741V0.121338H93.9918V71.4402H93.7305ZM87.4607 138.71C81.844 144.849 74.6599 147.984 66.1696 147.984C57.6792 147.984 50.4951 144.849 44.7478 138.71C39.2617 132.571 36.3881 124.995 36.3881 115.982C36.3881 106.969 39.1311 99.2624 44.7478 93.2538C50.3645 87.1147 57.5486 83.9798 66.0389 83.9798C74.5293 83.9798 81.7134 87.1147 87.3301 93.2538C92.8162 99.393 95.6898 106.969 95.6898 115.982C95.8205 124.995 92.9468 132.701 87.4607 138.71Z" fill="black"/>
</svg>
