<svg width="948" height="234" viewBox="0 0 948 234" fill="none" xmlns="http://www.w3.org/2000/svg">
<path d="M219.442 7.56689L196.453 143.02H192.404L158.443 7.56689H108.676L74.1924 143.412H70.0125L43.3659 7.56689H-0.00012207L36.0512 174.239C36.1818 174.892 36.7043 175.284 37.3574 175.284H99.9246C101.231 175.284 102.276 174.369 102.537 173.194L129.706 58.5089H133.363L159.618 173.063C159.879 174.369 161.055 175.284 162.492 175.284H224.667C225.582 175.284 226.235 174.631 226.496 173.847L262.808 7.56689H219.442Z" fill="black"/>
<path d="M367.174 65.3013C356.594 57.464 342.095 53.4148 324.331 53.4148C306.436 53.4148 292.068 57.3334 281.618 65.3013C272.475 72.2242 270.385 86.8537 270.385 95.2134L305.783 94.9521C305.783 91.1642 305.26 84.6331 308.656 80.3226C311.922 76.1428 317.8 74.4447 323.939 74.4447C330.209 74.4447 335.303 76.2734 339.091 79.9308C342.879 83.5882 344.708 88.4211 344.708 94.299C344.708 94.299 344.708 95.2134 344.708 98.8708C344.708 102.528 341.965 103.834 338.438 104.357C335.042 104.879 318.975 106.708 318.975 106.708C298.729 109.451 283.708 114.023 274.303 120.684C265.421 126.824 261.111 135.183 261.111 145.894C261.111 155.952 264.376 163.659 271.168 169.406C278.091 175.153 287.496 178.157 299.252 178.157C323.547 178.157 335.434 172.018 341.965 162.222L343.14 160.262H344.577V175.284H382.588V95.9971C382.588 83.0657 377.624 73.0079 367.174 65.3013ZM344.577 131.918C344.577 139.624 341.965 146.025 336.87 151.119C331.776 156.083 325.115 158.695 317.147 158.695C311.269 158.695 306.436 157.128 302.909 154.123C299.121 150.988 297.162 146.678 297.162 141.453C297.162 134.4 301.08 125.517 319.629 123.166L344.708 119.509V131.918H344.577Z" fill="black"/>
<path d="M485.125 53.6758C472.585 53.6758 455.474 60.2068 446.331 73.5301L445.155 75.3588H442.934V59.1618H405.185V175.284H442.934V109.581C442.934 102.267 445.155 96.2581 449.596 91.4251C454.037 86.5922 459.654 84.1104 466.315 84.1104C472.977 84.1104 478.333 86.4615 482.382 91.1639C486.17 95.7356 488.129 101.614 488.129 108.798V175.284H525.878V100.177C525.878 86.3309 522.09 75.3588 514.384 66.4766C506.677 57.8556 497.142 53.6758 485.125 53.6758Z" fill="black"/>
<path d="M635.731 71.4402H633.771L632.596 69.7421C624.628 58.77 606.341 54.4595 592.364 54.982C576.821 55.6351 565.587 61.1212 556.052 72.4852C546.386 83.8491 542.729 97.3031 542.729 116.112C542.729 135.314 546.778 149.421 556.444 160.654C565.979 171.887 581 178.418 596.806 178.418C611.304 178.418 624.236 173.063 632.204 162.221L633.379 160.523H635.992V175.284H673.741V0.121338H635.992V71.4402H635.731ZM629.461 138.71C623.844 144.849 616.66 147.984 608.17 147.984C599.679 147.984 592.495 144.849 586.748 138.71C581.262 132.571 578.388 124.995 578.388 115.982C578.388 106.969 581.131 99.2624 586.748 93.2538C592.364 87.1147 599.549 83.9798 608.039 83.9798C616.529 83.9798 623.713 87.1147 629.33 93.2538C634.816 99.393 637.69 106.969 637.69 115.982C637.82 124.995 634.947 132.701 629.461 138.71Z" fill="black"/>
<path d="M736.57 72.3545H735.263V56.68H697.775V175.284H735.525V118.072C735.525 111.671 736.7 102.005 742.839 95.0825C749.762 87.3759 767.396 81.2367 788.034 94.9519H790.255L773.796 56.68C748.064 48.3203 736.57 72.3545 736.57 72.3545Z" fill="black"/>
<path d="M865.753 130.089H863.533L831.269 54.7209H790.646L851.254 181.031L850.732 182.598C845.768 196.967 835.841 204.543 821.995 204.543C815.595 204.543 807.235 199.579 807.235 199.579L794.173 225.311C802.794 231.451 835.58 242.553 860.92 221.654C869.541 214.601 876.334 201.147 882.734 183.774L929.104 55.6353H890.832L865.753 130.089Z" fill="black"/>
<path d="M939.55 55.5142C934.887 55.5142 931.1 59.3007 931.1 63.9641C931.1 68.6275 934.887 72.414 939.55 72.414C944.214 72.414 948 68.6275 948 63.9641C948 59.3007 944.214 55.5142 939.55 55.5142ZM932.376 63.9641C932.376 60.0181 935.604 56.7896 939.55 56.7896C941.025 56.7896 942.34 57.3476 943.456 58.1049L942.181 59.6594C941.663 59.3804 941.105 59.1014 940.387 59.1014H936.481V66.7143L934.568 69.0659C933.253 67.7905 932.376 65.9968 932.376 63.9641ZM942.46 61.8516C942.46 62.3698 942.26 62.7683 941.902 63.0872C941.543 63.4061 941.025 63.5655 940.387 63.5655H940.108L942.101 61.0943C942.26 61.2936 942.46 61.5327 942.46 61.8516ZM937.677 63.5655V60.1377H940.427C940.905 60.1377 941.264 60.2971 941.583 60.4964L939.112 63.5655H937.677ZM938.275 64.5619L937.677 65.3193V64.5619H938.275ZM939.55 71.1385C937.916 71.1385 936.481 70.5008 935.245 69.5442L936.481 67.9897V68.0296H937.637V66.5549L939.271 64.5221H939.311L942.42 68.0296H943.855L940.626 64.4822H940.786C941.623 64.4424 942.3 64.1634 942.858 63.6851C943.377 63.2068 943.656 62.569 943.656 61.8117C943.656 61.0943 943.337 60.5761 942.898 60.1377L944.174 58.5434C945.728 59.8587 946.725 61.732 946.725 63.9242C946.725 67.91 943.496 71.1385 939.55 71.1385Z" fill="black"/>
</svg>
