<svg width="80" height="19" viewBox="0 0 80 19" fill="none" xmlns="http://www.w3.org/2000/svg">
<g clip-path="url(#clip0_1_1278)">
<path d="M17.6494 0.598877L15.8004 11.4932H15.4747L12.7433 0.598877H8.74064L5.96717 11.5247H5.63099L3.48785 0.598877H0L2.89954 14.004C2.91005 14.0565 2.95207 14.088 3.0046 14.088H8.03677C8.14182 14.088 8.22587 14.0145 8.24688 13.92L10.432 4.69605H10.7262L12.8378 13.9094C12.8588 14.0145 12.9534 14.088 13.0689 14.088H18.0696C18.1431 14.088 18.1957 14.0355 18.2167 13.9725L21.1372 0.598877H17.6494Z" fill="black"/>
<path d="M29.5312 5.24239C28.6803 4.61205 27.5141 4.28638 26.0854 4.28638C24.6461 4.28638 23.4905 4.60154 22.65 5.24239C21.9147 5.79918 21.7466 6.97581 21.7466 7.64816L24.5936 7.62715C24.5936 7.32249 24.5516 6.79721 24.8247 6.45053C25.0873 6.11435 25.5601 5.97778 26.0539 5.97778C26.5581 5.97778 26.9678 6.12485 27.2725 6.41901C27.5772 6.71317 27.7242 7.10187 27.7242 7.57462C27.7242 7.57462 27.7242 7.64816 27.7242 7.94232C27.7242 8.23648 27.5036 8.34153 27.22 8.38355C26.9468 8.42558 25.6546 8.57265 25.6546 8.57265C24.0263 8.79327 22.8181 9.16097 22.0617 9.69675C21.3474 10.1905 21.0007 10.8629 21.0007 11.7243C21.0007 12.5333 21.2633 13.1531 21.8096 13.6153C22.3664 14.0776 23.1228 14.3192 24.0683 14.3192C26.0223 14.3192 26.9783 13.8254 27.5036 13.0375L27.5982 12.8799H27.7137V14.0881H30.7709V7.7112C30.7709 6.67114 30.3717 5.86221 29.5312 5.24239ZM27.7137 10.6002C27.7137 11.2201 27.5036 11.7348 27.0939 12.1446C26.6842 12.5438 26.1484 12.7539 25.5076 12.7539C25.0348 12.7539 24.6461 12.6278 24.3625 12.3862C24.0578 12.134 23.9002 11.7874 23.9002 11.3671C23.9002 10.7998 24.2154 10.0855 25.7072 9.89636L27.7242 9.6022V10.6002H27.7137Z" fill="black"/>
<path d="M39.0177 4.30737C38.0092 4.30737 36.633 4.83265 35.8976 5.90422L35.803 6.0513H35.6244V4.74861H32.5883V14.0881H35.6244V8.80376C35.6244 8.21545 35.803 7.73219 36.1602 7.34349C36.5174 6.95478 36.9691 6.75517 37.5049 6.75517C38.0407 6.75517 38.4714 6.94427 38.7971 7.32247C39.1018 7.69017 39.2594 8.16292 39.2594 8.74073V14.0881H42.2955V8.04736C42.2955 6.93377 41.9908 6.0513 41.371 5.33692C40.7512 4.64355 39.9842 4.30737 39.0177 4.30737Z" fill="black"/>
<path d="M51.1307 5.73605H50.9731L50.8785 5.59947C50.2377 4.71701 48.7669 4.37032 47.6428 4.41234C46.3927 4.46487 45.4892 4.90611 44.7223 5.82009C43.9449 6.73408 43.6507 7.81615 43.6507 9.32896C43.6507 10.8733 43.9764 12.0079 44.7538 12.9114C45.5207 13.8148 46.7288 14.3401 48 14.3401C49.1661 14.3401 50.2062 13.9094 50.847 13.0374L50.9416 12.9009H51.1517V14.088H54.1878V0H51.1517V5.73605H51.1307ZM50.6264 11.1464C50.1747 11.6402 49.5969 11.8923 48.914 11.8923C48.2311 11.8923 47.6533 11.6402 47.1911 11.1464C46.7498 10.6527 46.5187 10.0433 46.5187 9.31845C46.5187 8.59356 46.7393 7.97374 47.1911 7.49048C47.6428 6.99672 48.2206 6.74458 48.9035 6.74458C49.5863 6.74458 50.1642 6.99672 50.6159 7.49048C51.0571 7.98424 51.2883 8.59356 51.2883 9.31845C51.2988 10.0433 51.0676 10.6632 50.6264 11.1464Z" fill="black"/>
<path d="M59.2409 5.80969H59.1359V4.54902H56.1208V14.0881H59.1569V9.48664C59.1569 8.97187 59.2515 8.19445 59.7452 7.63766C60.302 7.01783 61.7203 6.52407 63.3801 7.62715H63.5587L62.235 4.54902C60.1654 3.87666 59.2409 5.80969 59.2409 5.80969Z" fill="black"/>
<path d="M69.631 10.4531H69.4524L66.8575 4.39136H63.5903L68.4649 14.5503L68.4228 14.6763C68.0236 15.8319 67.2252 16.4413 66.1116 16.4413C65.5968 16.4413 64.9245 16.042 64.9245 16.042L63.8739 18.1116C64.5673 18.6054 67.2042 19.4984 69.2423 17.8175C69.9356 17.2502 70.4819 16.1681 70.9967 14.7709L74.7262 4.4649H71.6481L69.631 10.4531Z" fill="black"/>
<path d="M77.7728 4.34937C76.5437 4.34937 75.5457 5.3474 75.5457 6.57655C75.5457 7.8057 76.5437 8.80373 77.7728 8.80373C79.002 8.80373 80 7.8057 80 6.57655C80 5.3474 79.002 4.34937 77.7728 4.34937ZM75.8818 6.57655C75.8818 5.5365 76.7328 4.68554 77.7728 4.68554C78.1615 4.68554 78.5082 4.83262 78.8024 5.03223L78.4662 5.44195C78.3296 5.36841 78.1826 5.29487 77.9935 5.29487H76.9639V7.30143L76.4596 7.92126C76.113 7.58508 75.8818 7.11233 75.8818 6.57655ZM78.5397 6.01975C78.5397 6.15632 78.4872 6.26138 78.3927 6.34543C78.2981 6.42947 78.1615 6.47149 77.9935 6.47149H77.9199L78.4452 5.82015C78.4872 5.87267 78.5397 5.93571 78.5397 6.01975ZM77.2791 6.47149V5.56801H78.004C78.13 5.56801 78.2246 5.61004 78.3086 5.66256L77.6573 6.47149H77.2791ZM77.4367 6.73413L77.2791 6.93374V6.73413H77.4367ZM77.7728 8.46755C77.3421 8.46755 76.9639 8.29946 76.6382 8.04733L76.9639 7.63761V7.64812H77.2686V7.25941L77.6993 6.72363H77.7098L78.5292 7.64812H78.9074L78.0565 6.71312H78.0985C78.3191 6.70262 78.4977 6.62908 78.6448 6.50301C78.7814 6.37694 78.8549 6.20885 78.8549 6.00925C78.8549 5.82015 78.7709 5.68357 78.6553 5.56801L78.9915 5.14779C79.4012 5.49447 79.6638 5.98824 79.6638 6.56604C79.6638 7.6166 78.8129 8.46755 77.7728 8.46755Z" fill="black"/>
</g>
<defs>
<clipPath id="clip0_1_1278">
<rect width="80" height="18.7945" fill="white"/>
</clipPath>
</defs>
</svg>
