<svg width="158" height="180" viewBox="0 0 158 180" fill="none" xmlns="http://www.w3.org/2000/svg">
<path d="M75.7533 76.089H73.5327L41.2695 0.720947H0.646423L61.2544 127.031L60.7319 128.598C55.7683 142.967 45.8412 150.543 31.9954 150.543C25.595 150.543 17.2353 145.579 17.2353 145.579L4.1732 171.311C12.7942 177.451 45.5799 188.553 70.9203 167.654C79.5413 160.601 86.3336 147.147 92.734 129.774L139.104 1.63529H100.832L75.7533 76.089Z" fill="black"/>
<path d="M149.55 1.51416C144.887 1.51416 141.1 5.30068 141.1 9.96408C141.1 14.6275 144.887 18.414 149.55 18.414C154.214 18.414 158 14.6275 158 9.96408C158 5.30068 154.214 1.51416 149.55 1.51416ZM142.376 9.96408C142.376 6.01812 145.604 2.78962 149.55 2.78962C151.025 2.78962 152.34 3.34763 153.456 4.10494L152.181 5.6594C151.663 5.3804 151.105 5.10139 150.387 5.10139H146.481V12.7143L144.568 15.0659C143.253 13.7905 142.376 11.9968 142.376 9.96408ZM152.46 7.8516C152.46 8.36975 152.26 8.76833 151.902 9.0872C151.543 9.40606 151.025 9.5655 150.387 9.5655H150.108L152.101 7.09429C152.26 7.29359 152.46 7.53273 152.46 7.8516ZM147.677 9.5655V6.1377H150.427C150.905 6.1377 151.264 6.29713 151.583 6.49642L149.112 9.5655H147.677ZM148.275 10.5619L147.677 11.3193V10.5619H148.275ZM149.55 17.1385C147.916 17.1385 146.481 16.5008 145.245 15.5442L146.481 13.9897V14.0296H147.637V12.5549L149.271 10.5221H149.311L152.42 14.0296H153.855L150.626 10.4822H150.786C151.623 10.4424 152.3 10.1634 152.858 9.68507C153.377 9.20677 153.656 8.56904 153.656 7.81174C153.656 7.09429 153.337 6.57614 152.898 6.1377L154.174 4.54338C155.728 5.85869 156.725 7.73202 156.725 9.92422C156.725 13.91 153.496 17.1385 149.55 17.1385Z" fill="black"/>
</svg>
