<svg width="10" height="10" viewBox="0 0 10 10" fill="none" xmlns="http://www.w3.org/2000/svg">
    <path d="M0.21967 8.71967C-0.0732234 9.01256 -0.0732233 9.48744 0.21967 9.78033C0.512563 10.0732 0.987437 10.0732 1.28033 9.78033L8.5 2.56066L8.5 8.25C8.5 8.66421 8.83579 9 9.25 9C9.66421 9 10 8.66421 10 8.25L10 0.75C10 0.648307 9.97976 0.551342 9.94309 0.462912C9.90732 0.376463 9.85469 0.295346 9.7852 0.224588C9.78197 0.221294 9.77871 0.218031 9.77541 0.214797C9.70465 0.145307 9.62354 0.0926776 9.53709 0.0569091C9.44866 0.0202394 9.35169 -4.08775e-07 9.25 -4.0433e-07L1.75 -7.64949e-08C1.33579 -5.83891e-08 1 0.335787 1 0.75C1 1.16421 1.33579 1.5 1.75 1.5L7.43934 1.5L0.21967 8.71967Z" fill="black"/>
</svg>
