<svg width="24" height="24" viewBox="0 0 24 24" fill="none" xmlns="http://www.w3.org/2000/svg">
    <circle cx="12" cy="12" r="12" fill="black"/>
    <g clip-path="url(#clip0_152_620)">
        <path d="M12 6.26117C13.869 6.26117 14.0907 6.26817 14.8286 6.302C15.5916 6.337 16.3773 6.51083 16.9333 7.06675C17.4944 7.62792 17.663 8.40608 17.698 9.17142C17.7318 9.90933 17.7388 10.131 17.7388 12C17.7388 13.869 17.7318 14.0907 17.698 14.8286C17.6636 15.5875 17.4857 16.3808 16.9333 16.9333C16.3721 17.4944 15.5945 17.663 14.8286 17.698C14.0907 17.7318 13.869 17.7388 12 17.7388C10.131 17.7388 9.90933 17.7318 9.17142 17.698C8.41833 17.6636 7.6145 17.4816 7.06675 16.9333C6.5085 16.375 6.337 15.5893 6.302 14.8286C6.26817 14.0907 6.26117 13.869 6.26117 12C6.26117 10.131 6.26817 9.90933 6.302 9.17142C6.33642 8.41542 6.51608 7.61742 7.06675 7.06675C7.62675 6.50675 8.40783 6.337 9.17142 6.302C9.90933 6.26817 10.131 6.26117 12 6.26117ZM12 5C10.0989 5 9.86033 5.00817 9.11367 5.042C8.03158 5.09158 6.95708 5.39258 6.17483 6.17483C5.38967 6.96 5.09158 8.03217 5.042 9.11367C5.00817 9.86033 5 10.0989 5 12C5 13.9011 5.00817 14.1397 5.042 14.8863C5.09158 15.9672 5.39375 17.0447 6.17483 17.8252C6.95942 18.6097 8.03333 18.9084 9.11367 18.958C9.86033 18.9918 10.0989 19 12 19C13.9011 19 14.1397 18.9918 14.8863 18.958C15.9678 18.9084 17.0435 18.6068 17.8252 17.8252C18.6109 17.0394 18.9084 15.9678 18.958 14.8863C18.9918 14.1397 19 13.9011 19 12C19 10.0989 18.9918 9.86033 18.958 9.11367C18.9084 8.03158 18.6068 6.9565 17.8252 6.17483C17.0417 5.39142 15.9649 5.091 14.8863 5.042C14.1397 5.00817 13.9011 5 12 5Z" fill="white"/>
        <path d="M12 8.40552C10.0149 8.40552 8.40552 10.0149 8.40552 12C8.40552 13.9851 10.0149 15.5945 12 15.5945C13.9851 15.5945 15.5945 13.9851 15.5945 12C15.5945 10.0149 13.9851 8.40552 12 8.40552ZM12 14.3334C10.7114 14.3334 9.66668 13.2886 9.66668 12C9.66668 10.7114 10.7114 9.66668 12 9.66668C13.2886 9.66668 14.3334 10.7114 14.3334 12C14.3334 13.2886 13.2886 14.3334 12 14.3334Z" fill="white"/>
        <path d="M15.7367 9.10316C16.2006 9.10316 16.5767 8.72708 16.5767 8.26316C16.5767 7.79924 16.2006 7.42316 15.7367 7.42316C15.2728 7.42316 14.8967 7.79924 14.8967 8.26316C14.8967 8.72708 15.2728 9.10316 15.7367 9.10316Z" fill="white"/>
    </g>
    <defs>
        <clipPath id="clip0_152_620">
            <rect width="14" height="14" fill="white" transform="translate(5 5)"/>
        </clipPath>
    </defs>
</svg>
