<svg width="24" height="24" viewBox="0 0 24 24" fill="none" xmlns="http://www.w3.org/2000/svg">
    <circle cx="12" cy="12" r="12" fill="black"/>
    <path d="M11.8162 4.95998C11.3799 4.96248 10.9424 4.98873 10.5012 5.04248C9.65744 5.14623 8.82119 5.31873 8.01869 5.68748C6.74244 6.27373 5.83744 7.26873 5.57494 8.71498C5.46369 9.32498 5.37369 9.94373 5.32244 10.5662C5.22369 11.775 5.28494 12.9875 5.62744 14.1787C5.89744 15.1175 6.39494 15.9612 7.26619 16.5087C7.63494 16.74 8.12119 16.8525 8.37494 16.97C8.44619 17.0037 8.46369 17.0237 8.46744 17.0287C8.47119 17.0325 8.48119 17.0412 8.47994 17.1162C8.47119 17.8812 8.47994 19.3612 8.47994 19.3612L8.48119 19.68H9.05244L9.14494 19.59C9.14494 19.59 10.5962 18.1937 11.1212 17.6187C11.2162 17.5162 11.2649 17.4587 11.2749 17.4525C11.2837 17.4462 11.2687 17.4425 11.3662 17.44C12.0549 17.4262 12.7424 17.4 13.4299 17.3625C14.3362 17.3125 15.2599 17.2262 16.1487 16.855C16.9224 16.5312 17.5687 16.0025 17.9599 15.21C18.3599 14.3975 18.5737 13.5362 18.6537 12.645C18.7862 11.1612 18.7399 9.67498 18.3299 8.20998C18.0887 7.35123 17.6037 6.62498 16.8599 6.11248C15.9699 5.49998 14.9662 5.26998 13.9837 5.12373C13.4099 5.03873 12.8324 4.98248 12.2524 4.96498C12.1074 4.96123 11.9624 4.95873 11.8162 4.95998ZM12.2349 5.60498C12.7862 5.61998 13.3374 5.67373 13.8899 5.75623C14.8374 5.89748 15.7312 6.11248 16.4974 6.63998C17.1187 7.06748 17.5062 7.64498 17.7137 8.38123C18.0962 9.75123 18.1449 11.155 18.0162 12.5887C17.9424 13.415 17.7462 14.1937 17.3849 14.9275C17.0662 15.575 16.5687 15.9862 15.9012 16.265C15.1262 16.5887 14.2837 16.675 13.3962 16.7237C12.7162 16.7612 12.0349 16.7862 11.3537 16.8C11.1824 16.8037 11.0149 16.8487 10.8962 16.9362C10.7774 17.0237 10.7237 17.105 10.6499 17.185C10.2749 17.595 9.52744 18.3162 9.11994 18.7112C9.11744 18.2337 9.11369 17.6562 9.11994 17.1237C9.12244 16.96 9.08494 16.7925 8.99119 16.66C8.89744 16.5275 8.76869 16.4475 8.64494 16.39C8.28369 16.2225 7.81119 16.095 7.60619 15.9662C6.88994 15.5162 6.48369 14.8412 6.24244 14.0012C5.92619 12.9025 5.86619 11.7712 5.95994 10.62C6.00994 10.0225 6.09619 9.42373 6.20494 8.82998C6.43244 7.57873 7.14744 6.79123 8.28494 6.26873C9.00369 5.93873 9.77119 5.77623 10.5799 5.67748C11.1312 5.60998 11.6824 5.58873 12.2349 5.60498ZM12.3699 7.19998C12.1062 7.19998 11.8499 7.22998 11.6012 7.28498C11.4299 7.32498 11.3212 7.49623 11.3599 7.66873C11.3987 7.84123 11.5712 7.94873 11.7437 7.90998C11.9449 7.86373 12.1549 7.83998 12.3699 7.83998C13.9324 7.83998 15.1924 9.09998 15.1924 10.6612C15.1924 10.8775 15.1687 11.0875 15.1224 11.29C15.0837 11.4612 15.1912 11.6337 15.3637 11.6725C15.5362 11.7112 15.7074 11.6025 15.7462 11.43C15.8024 11.1825 15.8324 10.9262 15.8324 10.6612C15.8324 8.75373 14.2787 7.19998 12.3699 7.19998ZM9.17744 7.84123C9.12494 7.83873 9.07119 7.84248 9.01494 7.85498C8.43369 7.98373 7.85619 8.40498 7.83994 9.15748C7.85619 9.26248 7.85494 9.37498 7.89369 9.46998C8.08369 9.93498 8.24869 10.415 8.48619 10.855C9.64244 12.9925 11.3912 14.4787 13.6199 15.4225C13.8862 15.535 14.1612 15.5587 14.4299 15.4462C14.7999 15.2925 15.1137 15.055 15.3224 14.7137C15.6087 14.245 15.6124 13.92 15.1412 13.5737C14.8324 13.3462 14.5287 13.1125 14.2162 12.89C13.7399 12.5525 13.2249 12.4937 12.8699 13.0862C12.8512 13.1162 12.8237 13.1412 12.7999 13.1662C12.6174 13.36 12.3937 13.4075 12.1562 13.31C11.2549 12.9387 10.5587 12.34 10.1387 11.4487C9.89119 10.925 9.95869 10.6625 10.4212 10.3137C10.4674 10.28 10.5112 10.2437 10.5537 10.205C10.7562 10.02 10.8099 9.79998 10.6899 9.55123C10.4187 8.98373 10.0574 8.47748 9.59994 8.04123C9.47619 7.92373 9.33494 7.84998 9.17744 7.84123ZM12.3649 8.15998C12.2237 8.15998 12.0837 8.17123 11.9462 8.19498C11.8299 8.20998 11.7312 8.28748 11.6887 8.39623C11.6462 8.50623 11.6674 8.62998 11.7424 8.71998C11.8187 8.80873 11.9387 8.84998 12.0537 8.82498C12.1537 8.80873 12.2587 8.79998 12.3649 8.79998C13.4049 8.79998 14.2399 9.63498 14.2399 10.675C14.2399 10.7812 14.2312 10.8862 14.2149 10.9862C14.1899 11.1012 14.2312 11.2212 14.3199 11.2975C14.4099 11.3725 14.5337 11.3937 14.6437 11.3512C14.7524 11.3087 14.8299 11.21 14.8449 11.0937C14.8687 10.9562 14.8799 10.8162 14.8799 10.675C14.8799 9.28998 13.7499 8.15998 12.3649 8.15998ZM12.3199 9.11998C12.2049 9.11873 12.0974 9.17873 12.0387 9.27873C11.9812 9.37873 11.9812 9.50123 12.0387 9.60123C12.0974 9.70123 12.2049 9.76123 12.3199 9.75998C12.8537 9.75998 13.2799 10.1862 13.2799 10.72C13.2787 10.835 13.3387 10.9425 13.4387 11.0012C13.5387 11.0587 13.6612 11.0587 13.7612 11.0012C13.8612 10.9425 13.9212 10.835 13.9199 10.72C13.9199 9.83998 13.1999 9.11998 12.3199 9.11998Z" fill="white"/>
</svg>
