<?xml version="1.0" standalone="no"?>
<!DOCTYPE svg PUBLIC "-//W3C//DTD SVG 20010904//EN"
 "http://www.w3.org/TR/2001/REC-SVG-20010904/DTD/svg10.dtd">
<svg version="1.0" xmlns="http://www.w3.org/2000/svg"
 width="260.000000pt" height="260.000000pt" viewBox="0 0 260.000000 260.000000"
 preserveAspectRatio="xMidYMid meet">
<metadata>
Created by potrace 1.14, written by Peter Selinger 2001-2017
</metadata>
<g transform="translate(0.000000,260.000000) scale(0.100000,-0.100000)"
fill="#000000" stroke="none">
<path d="M1132 2590 c-549 -78 -984 -480 -1103 -1020 -31 -138 -33 -389 -5
-520 55 -253 163 -462 333 -641 188 -197 409 -322 673 -380 138 -31 389 -33
520 -5 253 55 462 163 641 333 197 188 322 409 380 673 31 138 33 389 5 520
-55 253 -163 462 -333 641 -184 193 -399 317 -653 375 -118 28 -348 40 -458
24z m737 -952 c-16 -46 -96 -267 -178 -493 l-148 -410 -66 -3 c-37 -2 -67 1
-67 6 0 8 176 500 317 885 l35 97 69 0 68 0 -30 -82z m-1080 -337 c27 -10 77
-40 110 -66 80 -63 136 -72 176 -29 15 16 29 41 32 57 5 26 9 28 36 23 16 -3
38 -6 48 -6 46 0 9 -133 -49 -182 -84 -70 -189 -61 -297 27 -110 89 -195 86
-227 -7 -10 -29 -13 -30 -56 -24 -25 3 -47 8 -50 11 -9 9 20 101 43 136 28 43
95 79 147 79 21 0 60 -8 87 -19z"/>
</g>
</svg>
